<?xml version="1.0" encoding="iso-8859-1"?>
<!-- Generator: Adobe Illustrator 19.0.0, SVG Export Plug-In . SVG Version: 6.00 Build 0)  -->
<svg xmlns="http://www.w3.org/2000/svg" xmlns:xlink="http://www.w3.org/1999/xlink" version="1.1" id="Capa_1" x="0px" y="0px" viewBox="0 0 501 501" style="enable-background:new 0 0 501 501;" xml:space="preserve" width="512" height="512">
<g>
	<path style="fill:#FFC981;" d="M490,256c0,135.31-109.69,245-245,245S0,391.31,0,256S109.69,11,245,11S490,120.69,490,256z"/>
	<path style="fill:#368ED7;" d="M490.333,164.686c0,85.421-69.247,154.668-154.668,154.668s-154.668-69.247-154.668-154.668   S250.244,10.018,335.665,10.018S490.333,79.266,490.333,164.686z"/>
	<path style="fill:#067FC8;" d="M209,164.686c0-80.7,61.809-146.953,140.667-154.031c-4.613-0.414-9.281-0.638-14.001-0.638   c-85.421,0-154.668,69.247-154.668,154.668s69.247,154.668,154.668,154.668c4.721,0,9.389-0.224,14.001-0.638   C270.809,311.639,209,245.387,209,164.686z"/>
	<path style="fill:#368ED7;" d="M79,155v20c0,2.761-2.239,5-5,5H64c-2.761,0-5-2.239-5-5v-20c0-2.761,2.239-5,5-5h10   C76.761,150,79,152.239,79,155z"/>
	<path style="fill:#FF5526;" d="M350.883,0.043C435.061,7.724,501,78.505,501,164.686c0,40.758-14.754,78.067-39.206,106.889   c-3.755,4.427-10.443,4.818-14.621,0.789L342.99,171.903c-1.955-1.885-3.059-4.483-3.059-7.198v-154.7   C339.932,4.106,345.009-0.493,350.883,0.043z"/>
	<path style="fill:#FF4927;" d="M472.206,257.923c-3.239,4.732-6.712,9.291-10.412,13.653c-3.755,4.427-10.443,4.818-14.621,0.789   L342.99,171.903c-1.955-1.885-3.059-4.483-3.059-7.198v-154.7c0-5.898,5.078-10.498,10.951-9.962   c4.963,0.453,9.859,1.133,14.686,2.015V150.69c0,2.814,1.144,5.507,3.17,7.46L472.206,257.923z"/>
	<path style="fill:#014C7E;" d="M114,130h-10c-2.761,0-5,2.239-5,5v40c0,2.761,2.239,5,5,5h10c2.761,0,5-2.239,5-5v-40   C119,132.239,116.761,130,114,130z"/>
	<path style="fill:#013963;" d="M237.908,460H44c-8.284,0-15-6.716-15-15V211.757c0-8.284,6.716-15,15-15h193.908   c8.284,0,15,6.716,15,15V445C252.908,453.284,246.192,460,237.908,460z"/>
	<path style="fill:#014C7E;" d="M237.908,460H67.601c-8.284,0-15-6.716-15-15V211.757c0-8.284,6.716-15,15-15h170.307   c8.284,0,15,6.716,15,15V445C252.908,453.284,246.192,460,237.908,460z"/>
	<path style="fill:#067FC8;" d="M100.408,338.046v-10.258c0-5.523,4.477-10,10-10h16.309c5.523,0,10,4.477,10,10v10.258   c0,5.523-4.477,10-10,10h-16.309C104.886,348.046,100.408,343.569,100.408,338.046z M78.911,402.51H62.601c-5.523,0-10,4.477-10,10   v10.258c0,5.523,4.477,10,10,10h16.309c5.523,0,10-4.477,10-10V412.51C88.911,406.987,84.433,402.51,78.911,402.51z    M78.911,360.149H62.601c-5.523,0-10,4.477-10,10v10.258c0,5.523,4.477,10,10,10h16.309c5.523,0,10-4.477,10-10v-10.258   C88.911,364.626,84.433,360.149,78.911,360.149z M110.408,390.407h16.309c5.523,0,10-4.477,10-10v-10.258c0-5.523-4.477-10-10-10   h-16.309c-5.523,0-10,4.477-10,10v10.258C100.408,385.93,104.886,390.407,110.408,390.407z M174.525,317.788h-16.31   c-5.523,0-10,4.477-10,10v10.258c0,5.523,4.477,10,10,10h16.31c5.523,0,10-4.477,10-10v-10.258   C184.525,322.265,180.048,317.788,174.525,317.788z M174.525,360.149h-16.31c-5.523,0-10,4.477-10,10v10.258   c0,5.523,4.477,10,10,10h16.31c5.523,0,10-4.477,10-10v-10.258C184.525,364.626,180.048,360.149,174.525,360.149z M78.911,317.788   H62.601c-5.523,0-10,4.477-10,10v10.258c0,5.523,4.477,10,10,10h16.309c5.523,0,10-4.477,10-10v-10.258   C88.911,322.265,84.433,317.788,78.911,317.788z M174.525,402.51h-64.117c-5.523,0-10,4.477-10,10v10.258c0,5.523,4.477,10,10,10   h64.117c5.523,0,10-4.477,10-10V412.51C184.525,406.987,180.048,402.51,174.525,402.51z"/>
	<path style="fill:#368ED7;" d="M88.911,370.149v10.258c0,5.523-4.477,10-10,10h-5.059c-5.523,0-10-4.477-10-10v-10.258   c0-5.523,4.477-10,10-10h5.059C84.433,360.149,88.911,364.626,88.911,370.149z M78.911,402.51h-5.059c-5.523,0-10,4.477-10,10   v10.258c0,5.523,4.477,10,10,10h5.059c5.523,0,10-4.477,10-10V412.51C88.911,406.987,84.433,402.51,78.911,402.51z    M121.658,348.046h5.059c5.523,0,10-4.477,10-10v-10.258c0-5.523-4.477-10-10-10h-5.059c-5.523,0-10,4.477-10,10v10.258   C111.658,343.569,116.136,348.046,121.658,348.046z M121.658,390.407h5.059c5.523,0,10-4.477,10-10v-10.258c0-5.523-4.477-10-10-10   h-5.059c-5.523,0-10,4.477-10,10v10.258C111.658,385.93,116.136,390.407,121.658,390.407z M78.911,317.788h-5.059   c-5.523,0-10,4.477-10,10v10.258c0,5.523,4.477,10,10,10h5.059c5.523,0,10-4.477,10-10v-10.258   C88.911,322.265,84.433,317.788,78.911,317.788z M174.525,317.788h-5.06c-5.523,0-10,4.477-10,10v10.258c0,5.523,4.477,10,10,10   h5.06c5.523,0,10-4.477,10-10v-10.258C184.525,322.265,180.048,317.788,174.525,317.788z M174.525,360.149h-5.06   c-5.523,0-10,4.477-10,10v10.258c0,5.523,4.477,10,10,10h5.06c5.523,0,10-4.477,10-10v-10.258   C184.525,364.626,180.048,360.149,174.525,360.149z M174.525,402.51h-52.867c-5.523,0-10,4.477-10,10v10.258   c0,5.523,4.477,10,10,10h52.867c5.523,0,10-4.477,10-10V412.51C184.525,406.987,180.048,402.51,174.525,402.51z"/>
	<path style="fill:#2FCFDC;" d="M219.307,287.53H62.601c-5.523,0-10-4.477-10-10v-46.567c0-5.523,4.477-10,10-10h156.706   c5.523,0,10,4.477,10,10v46.567C229.307,283.053,224.83,287.53,219.307,287.53z"/>
	<path style="fill:#81E1E9;" d="M219.307,287.53H80.756c-5.523,0-10-4.477-10-10v-46.567c0-5.523,4.477-10,10-10h138.551   c5.523,0,10,4.477,10,10v46.567C229.307,283.053,224.83,287.53,219.307,287.53z"/>
	<path style="fill:#368ED7;" d="M89,250c0,5.523-4.477,10-10,10s-10-4.477-10-10c0-5.523,4.477-10,10-10S89,244.477,89,250z    M109,240c-5.523,0-10,4.477-10,10c0,5.523,4.477,10,10,10s10-4.477,10-10C119,244.477,114.523,240,109,240z M139,240   c-5.523,0-10,4.477-10,10c0,5.523,4.477,10,10,10s10-4.477,10-10C149,244.477,144.523,240,139,240z"/>
	<path style="fill:#FF7E44;" d="M289,405v-10c0-2.761,2.239-5,5-5h39.565c2.761,0,5,2.239,5,5v10c0,2.761-2.239,5-5,5H294   C291.239,410,289,407.761,289,405z M334,430h-40c-2.761,0-5,2.239-5,5v10c0,2.761,2.239,5,5,5h40c2.761,0,5-2.239,5-5v-10   C339,432.239,336.761,430,334,430z M359,390c-5.523,0-10,4.477-10,10v0c0,5.523,4.477,10,10,10s10-4.477,10-10v0   C369,394.477,364.523,390,359,390z M379,355c0-2.761-2.239-5-5-5h-80c-2.761,0-5,2.239-5,5v10c0,2.761,2.239,5,5,5h80   c2.761,0,5-2.239,5-5V355z M439,390c-5.523,0-10,4.477-10,10v0c0,5.523,4.477,10,10,10s10-4.477,10-10v0   C449,394.477,444.523,390,439,390z M389,390c-5.523,0-10,4.477-10,10v0c0,5.523,4.477,10,10,10s10-4.477,10-10v0   C399,394.477,394.523,390,389,390z"/>
	<path style="fill:#FF4927;" d="M144,100h10c2.761,0,5,2.239,5,5v70c0,2.761-2.239,5-5,5h-10c-2.761,0-5-2.239-5-5v-70   C139,102.239,141.239,100,144,100z M209.049,390.407h10.258c5.523,0,10-4.477,10-10v-52.619c0-5.523-4.477-10-10-10h-10.258   c-5.523,0-10,4.477-10,10v52.619C199.049,385.93,203.526,390.407,209.049,390.407z"/>
	<path style="fill:#FF5526;" d="M229.307,327.788v52.619c0,5.271-4.081,9.579-9.254,9.962c-5.173-0.383-9.254-4.691-9.254-9.962   v-52.619c0-5.271,4.081-9.579,9.254-9.962C225.226,318.209,229.307,322.517,229.307,327.788z"/>
	<path style="fill:#409A8F;" d="M199.049,422.768V412.51c0-5.523,4.477-10,10-10h10.258c5.523,0,10,4.477,10,10v10.258   c0,5.523-4.477,10-10,10h-10.258C203.526,432.768,199.049,428.291,199.049,422.768z"/>
	<path style="fill:#53B1A2;" d="M229.307,412.51v10.258c0,5.271-4.081,9.579-9.254,9.962c-5.173-0.383-9.254-4.691-9.254-9.962   V412.51c0-5.271,4.081-9.579,9.254-9.962C225.226,402.931,229.307,407.239,229.307,412.51z"/>
	<path style="fill:#FFF5F5;" d="M410.333,164.686c0,41.238-33.43,74.668-74.668,74.668s-74.668-33.43-74.668-74.668   s33.43-74.668,74.668-74.668S410.333,123.448,410.333,164.686z"/>
	<path style="fill:#014C7E;" d="M379.744,136.749l-72.017,72.017c-3.905,3.905-10.237,3.905-14.142,0l-1.999-1.999   c-3.905-3.905-3.905-10.237,0-14.142l72.016-72.017c3.905-3.905,10.237-3.905,14.142,0l1.999,1.999   C383.649,126.512,383.649,132.843,379.744,136.749z M311.847,140.868L311.847,140.868c5.643-5.643,5.643-14.793,0-20.436v0   c-5.643-5.643-14.792-5.643-20.436,0v0c-5.643,5.643-5.643,14.793,0,20.436S306.204,146.512,311.847,140.868z M379.919,188.505   L379.919,188.505c-5.643-5.643-14.792-5.643-20.436,0v0c-5.643,5.643-5.643,14.793,0,20.436v0c5.643,5.643,14.792,5.643,20.436,0v0   C385.562,203.297,385.562,194.148,379.919,188.505z"/>
</g>















</svg>
